<svg width="18" height="20" viewBox="0 0 18 20" fill="none" xmlns="http://www.w3.org/2000/svg">
<path fill-rule="evenodd" clip-rule="evenodd" d="M10.2881 13.1264C11.3453 13.1264 12.2058 13.986 12.2058 15.0427V17.7604C12.2058 17.9874 12.3866 18.1694 12.6184 18.1747H14.292C15.6108 18.1747 16.6829 17.1092 16.6829 15.7999V8.09218C16.6768 7.64159 16.4634 7.21751 16.0973 6.93567L10.3083 2.2902C9.53122 1.67087 8.44419 1.67087 7.66449 2.29197L1.91502 6.93391C1.53483 7.22458 1.32146 7.64866 1.31707 8.1072V15.7999C1.31707 17.1092 2.38917 18.1747 3.708 18.1747H5.39737C5.63532 18.1747 5.82849 17.9848 5.82849 17.7515C5.82849 17.7003 5.83463 17.6491 5.84517 17.6005V15.0427C5.84517 13.9922 6.70039 13.1335 7.74966 13.1264H10.2881ZM14.292 19.5H12.6026C11.635 19.477 10.8887 18.7128 10.8887 17.7604V15.0427C10.8887 14.7167 10.6191 14.4517 10.2881 14.4517H7.75405C7.43005 14.4534 7.16224 14.7194 7.16224 15.0427V17.7515C7.16224 17.8178 7.15346 17.8814 7.13502 17.9415C7.04019 18.8162 6.29737 19.5 5.39737 19.5H3.708C1.66302 19.5 0 17.8399 0 15.7999V8.10102C0.00878049 7.22281 0.410927 6.41882 1.10546 5.8896L6.84351 1.25562C8.10702 0.248422 9.86751 0.248422 11.1284 1.25385L16.9077 5.89225C17.5864 6.41264 17.9886 7.21486 18 8.08246V15.7999C18 17.8399 16.337 19.5 14.292 19.5Z"/>
<path d="M10.2881 13.1264C11.3453 13.1264 12.2058 13.986 12.2058 15.0427V17.7604C12.2058 17.9874 12.3866 18.1694 12.6184 18.1747H14.292C15.6108 18.1747 16.6829 17.1092 16.6829 15.7999V8.09218C16.6768 7.64159 16.4634 7.21751 16.0973 6.93567L10.3083 2.2902C9.53122 1.67087 8.44419 1.67087 7.66449 2.29197L1.91502 6.93391C1.53483 7.22458 1.32146 7.64866 1.31707 8.1072V15.7999C1.31707 17.1092 2.38917 18.1747 3.708 18.1747H5.39737C5.63532 18.1747 5.82849 17.9848 5.82849 17.7515C5.82849 17.7003 5.83463 17.6491 5.84517 17.6005V15.0427C5.84517 13.9922 6.70039 13.1335 7.74966 13.1264H10.2881Z"/>
</svg>
