<svg width="44" height="35" viewBox="0 0 44 35" fill="none" xmlns="http://www.w3.org/2000/svg">
<path fill-rule="evenodd" clip-rule="evenodd" d="M40.5894 22.7447C42.4727 22.7447 44 21.1782 44 19.2468H43.9995C43.9995 17.3149 42.4723 15.7489 40.589 15.7489C36.4025 15.6208 34.6267 12.7205 33.8926 9.90539V6.79395C33.8926 6.79395 33.8926 0 26.2966 0H17.703C10.1069 0 10.1069 6.79395 10.1069 6.79395V9.90539C9.37281 12.7205 7.59699 15.6208 3.41056 15.7489C1.52727 15.7489 0 17.3154 0 19.2468C0 21.1782 1.52727 22.7447 3.41056 22.7447C3.62456 22.7323 3.83328 22.7133 4.03673 22.6856C8.30329 22.1145 10.3723 18.5194 11.3396 14.559C12.52 15.7261 14.1216 15.5382 14.1216 15.5382H29.8784C29.8784 15.5382 31.4805 15.7261 32.6604 14.559C33.6277 18.52 35.6967 22.1145 39.9633 22.6856C40.1667 22.7127 40.3754 22.7323 40.5894 22.7447ZM20.3501 30.7003C20.3501 30.7003 20.7623 31.9238 20.1026 32.8651C19.4423 33.8058 18.689 33.7607 18.689 33.7607C17.572 33.6913 16.9559 33.2342 16.6503 32.49C16.3427 31.7414 16.348 30.7036 16.4718 29.4773C16.7193 27.0303 19.3598 21.6667 19.3598 21.6667C18.4497 21.0059 18.407 20.9572 17.8704 20.3441L17.7922 20.2548C16.9669 19.3136 16.2242 19.1257 16.2242 19.1257C14.6566 18.749 13.2536 21.0077 13.2536 21.0077H15.2343L15.3168 22.1368C15.3994 23.1719 16.1416 23.2664 16.1416 23.2664C16.5543 23.2664 16.4718 23.9248 16.4718 23.9248C15.7506 31.4299 13.2075 30.9413 13.2075 30.9413C9.0451 30.0728 8.5173 21.6048 8.5173 21.6048C8.5173 21.6048 10.4342 19.6534 11.2523 17.4555L11.2532 17.4528L11.2544 17.4492C11.2553 17.4465 11.2565 17.4429 11.258 17.4387C11.2604 17.4338 11.2624 17.4289 11.2638 17.4235L11.2693 17.4091L11.2715 17.4034C11.3454 17.2199 11.6433 16.6054 12.3698 16.4893C12.4316 16.4831 12.4973 16.4773 12.5682 16.4712L12.5687 16.4711L12.569 16.4711L12.5785 16.4703H12.5799C12.9561 16.4388 13.4628 16.4078 14.1442 16.3829H29.8563C30.5377 16.4078 31.0444 16.4388 31.4206 16.4703H31.422L31.4317 16.4711L31.4323 16.4712L31.4336 16.4713C31.504 16.4774 31.5693 16.4831 31.6307 16.4893C32.3572 16.6054 32.6551 17.2199 32.729 17.4034L32.7312 17.4091L32.7367 17.4235C32.7381 17.4289 32.7401 17.4338 32.7425 17.4387C32.7449 17.4452 32.7463 17.4501 32.7473 17.4528L32.7482 17.4555C33.5663 19.6534 35.4832 21.6048 35.4832 21.6048C35.4832 21.6048 34.9554 30.0728 30.793 30.9413C30.793 30.9413 28.2499 31.4299 27.5287 23.9248C27.5287 23.9248 27.4462 23.2664 27.8589 23.2664C27.8589 23.2664 28.6011 23.1719 28.6837 22.1368L28.7662 21.0077H30.7469C30.7469 21.0077 29.3439 18.749 27.7763 19.1257C27.7763 19.1257 27.0336 19.3136 26.2083 20.2548L26.1301 20.3441C25.5935 20.9572 25.5508 21.0059 24.6407 21.6667C24.6407 21.6667 27.2812 27.0303 27.5287 29.4773C27.6525 30.7036 27.6578 31.7414 27.3502 32.49C27.0446 33.2342 26.4285 33.6913 25.3115 33.7607C25.3115 33.7607 24.5582 33.8058 23.8979 32.8651C23.2382 31.9238 23.6504 30.7003 23.6504 30.7003C23.6504 30.7003 24.7232 28.9123 23.6504 27.7832C23.6504 27.7832 23.3202 27.3126 22.0002 27.3126C20.6803 27.3126 20.3501 27.7832 20.3501 27.7832C19.2773 28.9123 20.3501 30.7003 20.3501 30.7003ZM23.4671 34.8567C23.7281 34.8111 23.7617 34.639 23.5419 34.4735L23.5414 34.474L22.4014 33.6153C22.1816 33.4497 21.8222 33.4497 21.6025 33.6153L20.4452 34.487C20.2259 34.6521 20.2595 34.8236 20.5205 34.8676C20.5205 34.8676 21.2868 35 21.9643 35C22.6418 35 23.4671 34.8567 23.4671 34.8567ZM22.7018 4.81399C22.6237 4.5643 22.2703 4.56429 22.1921 4.81399L21.7317 6.28429C21.6968 6.39571 21.5936 6.47156 21.4768 6.47156H19.9666C19.7103 6.47156 19.6012 6.79759 19.8058 6.9519L21.0444 7.8857C21.1346 7.95368 21.1723 8.07101 21.1385 8.17877L20.6695 9.67678C20.5919 9.92459 20.8778 10.1262 21.0851 9.96985L22.2862 9.06433C22.3814 8.99258 22.5126 8.99258 22.6078 9.06433L23.8088 9.96985C24.0162 10.1262 24.3021 9.92459 24.2245 9.67678L23.7554 8.17877C23.7217 8.07101 23.7594 7.95368 23.8495 7.8857L25.0881 6.9519C25.2928 6.79759 25.1837 6.47156 24.9273 6.47156H23.4171C23.3003 6.47156 23.1971 6.39571 23.1622 6.28429L22.7018 4.81399Z" fill="#2E8DFF"/>
</svg>
